g TestMesh
v 0.1091831 0 0.4358506
v -0.0109589 0 0.4699553
v 0.2374429 0 0.07531464
v 0.08483003 0 -0.4955339
v 0.1351598 0 -0.4533089
v -0.2520548 0 -0.1211938
v -0.1603247 0 -0.4817296
v -0.1944191 0 0.273447
v -0.1392187 0 0.4326025
vn 0 1 0
vn 0 1 0
vn 0 1 0
vn 0 1 0
vn 0 1 0
vn 0 1 0
vn 0 1 0
vn 0 1 0
vn 0 1 0
vt 0.2952816 0.9358506
vt 0.5205479 0.9699553
vt 0.05479452 0.5753146
vt 0.3409437 0.004466057
vt 0.2465753 0.04669106
vt 0.9726027 0.3788062
vt 0.8006089 0.01827037
vt 0.8645358 0.773447
vt 0.761035 0.9326025
f 3/3/3 2/2/2 1/1/1
f 3/3/3 5/5/5 4/4/4
f 4/4/4 6/6/6 3/3/3
f 4/4/4 7/7/7 6/6/6
f 3/3/3 6/6/6 8/8/8
f 3/3/3 8/8/8 2/2/2
f 8/8/8 9/9/9 2/2/2
